<svg xmlns="http://www.w3.org/2000/svg" viewBox="0 0 512 512"><rect width="512" height="512" rx="112" fill="#0d0d0c"/><path fill="#f3f3f0" d="M256.00 81.92A174.08 174.08 0 0 1 358.32 396.83L313.18 334.70A97.28 97.28 0 0 0 256.00 158.72Z"/><path fill="#f3f3f0" d="M358.32 396.83A174.08 174.08 0 0 1 256.00 430.08L256.00 353.28A97.28 97.28 0 0 0 313.18 334.70Z"/><path fill="#f3f3f0" d="M256.00 430.08A174.08 174.08 0 0 1 115.17 358.32L177.30 313.18A97.28 97.28 0 0 0 256.00 353.28Z"/><path fill="#d4ff00" d="M115.17 358.32A174.08 174.08 0 0 1 256.00 81.92L256.00 158.72A97.28 97.28 0 0 0 177.30 313.18Z"/><g stroke="#0d0d0c" stroke-width="12.29"><line x1="256.00" y1="160.72" x2="256.00" y2="79.92"/><line x1="312.00" y1="333.08" x2="359.50" y2="398.45"/><line x1="256.00" y1="351.28" x2="256.00" y2="432.08"/><line x1="178.92" y1="312.00" x2="113.55" y2="359.50"/></g></svg>